<svg width="254" height="96" viewBox="0 0 254 96" fill="none" xmlns="http://www.w3.org/2000/svg">
<path d="M93.3969 48C93.3969 74.5097 72.4893 96 46.6984 96C20.9076 96 0 74.5097 0 48C0 21.4903 20.9076 0 46.6984 0C72.4893 0 93.3969 21.4903 93.3969 48Z" fill="white"/>
<path d="M254 48C254 74.5097 233.092 96 207.302 96C181.511 96 160.603 74.5097 160.603 48C160.603 21.4903 181.511 0 207.302 0C233.092 0 254 21.4903 254 48Z" fill="white"/>
<path d="M46.6984 0H207.054V96L46.6984 96V0Z" fill="white"/>
<path d="M93.3969 48C93.3969 74.5097 72.4893 96 46.6984 96C20.9076 96 0 74.5097 0 48C0 21.4903 20.9076 0 46.6984 0C72.4893 0 93.3969 21.4903 93.3969 48Z" fill="url(#paint0_linear_115_60)"/>
<path d="M254 48C254 74.5097 233.092 96 207.302 96C181.511 96 160.603 74.5097 160.603 48C160.603 21.4903 181.511 0 207.302 0C233.092 0 254 21.4903 254 48Z" fill="url(#paint1_linear_115_60)"/>
<path d="M46.6984 0H207.054V96L46.6984 96V0Z" fill="url(#paint2_linear_115_60)"/>
<path fill-rule="evenodd" clip-rule="evenodd" d="M149.725 95.9045L206.101 0.065671H208.496L152.096 95.9459H149.702C149.71 95.932 149.717 95.9182 149.725 95.9045Z" fill="#545252"/>
<path fill-rule="evenodd" clip-rule="evenodd" d="M148.614 1.84739C148.873 1.40716 149.419 1.24126 149.88 1.46287L149.936 1.48973C150.47 1.74702 150.674 2.41653 150.374 2.92764L95.6705 95.9241H93.2754L148.614 1.84739Z" fill="#545252"/>
<path fill-rule="evenodd" clip-rule="evenodd" d="M95.6853 0.103271V95.9241H93.3361V0.103271L95.6853 0.103271Z" fill="#545252"/>
<path fill-rule="evenodd" clip-rule="evenodd" d="M152.065 0.103271L152.065 95.9241H149.716V0.103271L152.065 0.103271Z" fill="#545252"/>
<path fill-rule="evenodd" clip-rule="evenodd" d="M208.445 0.103271V95.9241H206.096V0.103271L208.445 0.103271Z" fill="#545252"/>
<rect x="46.9456" width="104.763" height="2.03175" fill="#545252"/>
<defs>
<linearGradient id="paint0_linear_115_60" x1="254.494" y1="47.7461" x2="46.9456" y2="47.7461" gradientUnits="userSpaceOnUse">
<stop stop-color="#99FFCC"/>
<stop offset="1" stop-color="#FFCCFF"/>
</linearGradient>
<linearGradient id="paint1_linear_115_60" x1="254.494" y1="47.7461" x2="46.9456" y2="47.7461" gradientUnits="userSpaceOnUse">
<stop stop-color="#99FFCC"/>
<stop offset="1" stop-color="#FFCCFF"/>
</linearGradient>
<linearGradient id="paint2_linear_115_60" x1="254.494" y1="47.7461" x2="46.9456" y2="47.7461" gradientUnits="userSpaceOnUse">
<stop stop-color="#99FFCC"/>
<stop offset="1" stop-color="#FFCCFF"/>
</linearGradient>
</defs>
</svg>
